<svg width="26" height="26" viewBox="0 0 26 26" fill="none" xmlns="http://www.w3.org/2000/svg">
<g clip-path="url(#clip0_102_436)">
<path fill-rule="evenodd" clip-rule="evenodd" d="M13 24.375C16.0168 24.375 18.9101 23.1766 21.0433 21.0433C23.1766 18.9101 24.375 16.0168 24.375 13C24.375 9.98316 23.1766 7.08989 21.0433 4.95666C18.9101 2.82344 16.0168 1.625 13 1.625C9.98316 1.625 7.08989 2.82344 4.95666 4.95666C2.82343 7.08989 1.625 9.98316 1.625 13C1.625 16.0168 2.82343 18.9101 4.95666 21.0433C7.08989 23.1766 9.98316 24.375 13 24.375ZM13 2.06237e-06C16.4478 2.10349e-06 19.7544 1.36964 22.1924 3.80761C24.6304 6.24559 26 9.55219 26 13C26 16.4478 24.6304 19.7544 22.1924 22.1924C19.7544 24.6304 16.4478 26 13 26C9.55219 26 6.24559 24.6304 3.80761 22.1924C1.36964 19.7544 1.13909e-07 16.4478 1.55023e-07 13C1.96138e-07 9.55219 1.36964 6.24559 3.80761 3.80761C6.24559 1.36964 9.55219 2.02126e-06 13 2.06237e-06ZM12.1875 7.3125C12.1875 7.09701 12.2731 6.89035 12.4255 6.73798C12.5779 6.5856 12.7845 6.5 13 6.5C13.2155 6.5 13.4222 6.5856 13.5745 6.73798C13.7269 6.89035 13.8125 7.09701 13.8125 7.3125L13.8125 16.7261L17.2998 13.2373C17.3753 13.1617 17.465 13.1018 17.5637 13.0609C17.6624 13.02 17.7682 12.999 17.875 12.999C17.9818 12.999 18.0876 13.02 18.1863 13.0609C18.285 13.1018 18.3747 13.1617 18.4503 13.2373C18.5258 13.3128 18.5857 13.4025 18.6266 13.5012C18.6675 13.5999 18.6885 13.7057 18.6885 13.8125C18.6885 13.9193 18.6675 14.0251 18.6266 14.1238C18.5857 14.2225 18.5258 14.3122 18.4503 14.3878L13.5753 19.2628C13.4998 19.3384 13.4101 19.3984 13.3114 19.4394C13.2127 19.4804 13.1069 19.5015 13 19.5015C12.8931 19.5015 12.7873 19.4804 12.6886 19.4394C12.5899 19.3984 12.5002 19.3384 12.4248 19.2628L7.54975 14.3878C7.39718 14.2352 7.31147 14.0283 7.31147 13.8125C7.31147 13.5967 7.39718 13.3898 7.54975 13.2373C7.70232 13.0847 7.90924 12.999 8.125 12.999C8.34076 12.999 8.54768 13.0847 8.70025 13.2373L12.1875 16.7261L12.1875 7.3125Z" fill="white"/>
</g>
<defs>
<clipPath id="clip0_102_436">
<rect width="26" height="26" fill="white" transform="translate(0 26) rotate(-90)"/>
</clipPath>
</defs>
</svg>
