<svg width="26" height="20" viewBox="0 0 26 20" fill="none" xmlns="http://www.w3.org/2000/svg">
<path d="M3.88011 4.92241e-06L22.1199 6.51698e-06C22.84 -0.00107291 23.5456 0.209005 24.1552 0.605927C24.7648 1.00285 25.2533 1.57038 25.5642 2.24283C25.9282 3.0407 26.0684 3.92839 25.9688 4.80475C25.8693 5.6811 25.5339 6.51087 25.001 7.19949L15.8811 18.6379C15.5232 19.0655 15.0807 19.4084 14.5836 19.6434C14.0865 19.8784 13.5465 20 13 20C12.4535 20 11.9135 19.8784 11.4164 19.6434C10.9193 19.4084 10.4768 19.0655 10.1189 18.6379L0.999001 7.19948C0.466092 6.51086 0.13074 5.6811 0.0311599 4.80474C-0.0684199 3.92839 0.0717819 3.0407 0.435782 2.24283C0.746728 1.57038 1.23525 1.00285 1.84481 0.605925C2.45436 0.209004 3.16002 -0.00107463 3.88011 4.92241e-06Z" fill="white"/>
</svg>
