<svg width="43" height="43" viewBox="0 0 43 43" fill="none" xmlns="http://www.w3.org/2000/svg">
<path d="M21.4942 14.3303C17.5464 14.3303 14.3246 17.5521 14.3246 21.5C14.3246 25.4479 17.5464 28.6697 21.4942 28.6697C25.4421 28.6697 28.6638 25.4479 28.6638 21.5C28.6638 17.5521 25.4421 14.3303 21.4942 14.3303ZM42.9976 21.5C42.9976 18.531 43.0245 15.5889 42.8578 12.6253C42.691 9.18293 41.9058 6.12786 39.3886 3.61066C36.8661 1.08808 33.8164 0.308182 30.3742 0.141444C27.4052 -0.0252934 24.4632 0.00159984 21.4996 0.00159984C18.5306 0.00159984 15.5886 -0.0252934 12.625 0.141444C9.18276 0.308182 6.12775 1.09346 3.6106 3.61066C1.08806 6.13324 0.308176 9.18293 0.141442 12.6253C-0.0252929 15.5943 0.00159981 18.5364 0.00159981 21.5C0.00159981 24.4636 -0.0252929 27.4111 0.141442 30.3747C0.308176 33.8171 1.09344 36.8721 3.6106 39.3893C6.13313 41.9119 9.18276 42.6918 12.625 42.8586C15.594 43.0253 18.536 42.9984 21.4996 42.9984C24.4685 42.9984 27.4106 43.0253 30.3742 42.8586C33.8164 42.6918 36.8715 41.9065 39.3886 39.3893C41.9111 36.8668 42.691 33.8171 42.8578 30.3747C43.0299 27.4111 42.9976 24.469 42.9976 21.5V21.5ZM21.4942 32.5316C15.3896 32.5316 10.4628 27.6047 10.4628 21.5C10.4628 15.3953 15.3896 10.4684 21.4942 10.4684C27.5989 10.4684 32.5256 15.3953 32.5256 21.5C32.5256 27.6047 27.5989 32.5316 21.4942 32.5316ZM32.9774 12.593C31.5521 12.593 30.4011 11.442 30.4011 10.0166C30.4011 8.59128 31.5521 7.44025 32.9774 7.44025C34.4027 7.44025 35.5537 8.59128 35.5537 10.0166C35.5541 10.3551 35.4878 10.6903 35.3585 11.0031C35.2291 11.3158 35.0394 11.6 34.8001 11.8393C34.5608 12.0787 34.2766 12.2684 33.9638 12.3977C33.651 12.5271 33.3158 12.5934 32.9774 12.593V12.593Z" fill="#83C441"/>
</svg>
