<svg width="36" height="42" viewBox="0 0 36 42" fill="none" xmlns="http://www.w3.org/2000/svg">
<path d="M18.9096 0.0354394C21.1692 0 23.4159 0.0210011 25.66 0C25.796 2.67896 26.7465 5.40779 28.6811 7.30183C30.6118 9.24312 33.3428 10.1317 36 10.4323V17.4795C33.5099 17.3968 31.0081 16.8718 28.7484 15.785C27.7643 15.3334 26.8475 14.752 25.9501 14.1574C25.9384 19.2712 25.9708 24.3784 25.9177 29.4711C25.783 31.9178 24.9866 34.3526 23.5829 36.3687C21.3246 39.7249 17.4049 41.913 13.3789 41.9812C10.9095 42.1243 8.44267 41.4418 6.33841 40.1843C2.85117 38.1 0.397285 34.2843 0.039885 30.1891C-0.00513331 29.3218 -0.0120465 28.4529 0.0191662 27.585C0.329949 24.255 1.95508 21.0694 4.4776 18.9023C7.3368 16.3782 11.342 15.1759 15.0921 15.8873C15.1271 18.4797 15.0248 21.0694 15.0248 23.6617C13.3116 23.0999 11.3096 23.2574 9.8127 24.3114C8.7175 25.0427 7.88986 26.1187 7.45723 27.3736C7.09983 28.2609 7.20213 29.2467 7.22284 30.1891C7.63334 33.061 10.3579 35.4748 13.2663 35.2136C15.1944 35.1926 17.0423 34.0586 18.0471 32.3982C18.3722 31.8167 18.736 31.2221 18.7555 30.5383C18.9251 27.4078 18.8578 24.2904 18.8785 21.1599C18.8927 14.1049 18.8578 7.0695 18.9109 0.036752L18.9096 0.0354394Z" fill="#83C441"/>
</svg>
