<svg width="57" height="40" viewBox="0 0 57 40" fill="none" xmlns="http://www.w3.org/2000/svg">
<path d="M55.8104 6.24841C55.4859 5.03846 54.8497 3.93506 53.9655 3.04864C53.0813 2.16221 51.98 1.52386 50.772 1.19745C46.3252 2.42974e-07 28.5 0 28.5 0C28.5 0 10.6748 -2.42974e-07 6.22801 1.19108C5.01944 1.51643 3.91763 2.15443 3.03325 3.04102C2.14887 3.92761 1.51304 5.03157 1.18962 6.24204C-2.42676e-07 10.7006 0 20 0 20C0 20 -2.42676e-07 29.2994 1.18962 33.7516C1.84487 36.2102 3.77879 38.1465 6.22801 38.8025C10.6748 40 28.5 40 28.5 40C28.5 40 46.3252 40 50.772 38.8025C53.2276 38.1465 55.1551 36.2102 55.8104 33.7516C57 29.2994 57 20 57 20C57 20 57 10.7006 55.8104 6.24841ZM22.8382 28.535V11.465L37.5971 19.9363L22.8382 28.535Z" fill="#83C441"/>
</svg>
